<svg xmlns="http://www.w3.org/2000/svg" xmlns:xlink="http://www.w3.org/1999/xlink" width="65" height="65"><defs><path id="a" d="M.01.053V65h64.937V.053H.01z"/></defs><g transform="rotate(180 32.5 32.5)" fill="none" fill-rule="evenodd"><mask id="b" fill="#fff"><use xlink:href="#a"/></mask><g fill="currentColor"><path d="M32.473 65c17.908 0 32.473-14.565 32.473-32.473S50.382.053 32.473.053 0 14.618 0 32.527 14.565 65 32.473 65zm0-62.32c16.462 0 29.847 13.385 29.847 29.847S48.936 62.373 32.473 62.373 2.627 48.99 2.627 32.527 16.01 2.68 32.473 2.68z" mask="url(#b)"/><path d="M36.404 42.62a1.415 1.415 0 001.933 0L48.6 32.916a1.25 1.25 0 00.401-.915c0-.34-.138-.666-.4-.915l-10.262-9.705c-.54-.5-1.395-.5-1.933 0s-.54 1.32 0 1.83l9.295 8.79-9.295 8.79a1.26 1.26 0 000 1.83z"/></g><path stroke="currentColor" stroke-width="3" stroke-linecap="square" d="M45.606 32H20.382"/></g></svg>